<svg fill="none" height="1900" viewBox="0 0 1900 1900" width="1900" xmlns="http://www.w3.org/2000/svg">
    <rect fill="#23286B" height="1900" width="1900"/>
    <g clip-path="url(#clip0_3_2)">
        <path d="M1163.89 1363.47C1198.06 1370.09 1208.87 1384.37 1210.61 1404.22H1097.99C1083.35 1393.42 1063.48 1359.64 1063.82 1300.43C1064.87 1228.68 1068.36 1023.53 1068.36 1023.53L1217.94 985.562C1217.94 985.562 1166.68 1124.53 1153.08 1203.95C1139.49 1284.06 1127.98 1356.5 1163.89 1363.47Z"
              fill="url(#paint0_linear_3_2)"/>
        <path d="M1013.97 1053.83C1013.97 1053.83 1048.13 1215.79 973.52 1266.29C899.603 1316.8 869.269 1295.9 856.368 1319.58C842.77 1343.27 866.479 1355.11 904.135 1349.19C941.094 1343.27 997.578 1343.27 1004.9 1404.22H825.337C789.773 1404.22 691.449 1234.95 694.935 1118.96L1013.97 1053.83Z"
              fill="url(#paint1_linear_3_2)"/>
        <path d="M392.99 1375.31C438.317 1331.43 507.004 1311.57 553.725 1269.78C570.461 1249.92 585.105 1227.98 597.309 1205.34C597.657 1204.3 597.657 1203.95 598.355 1202.9C598.355 1202.55 598.703 1201.86 599.401 1201.51C619.275 1161.8 624.505 1130.8 622.064 1125.23C715.507 1309.48 591.381 1379.84 566.975 1502.44C542.568 1625.05 580.921 1649.78 580.921 1649.78C445.639 1672.76 384.622 1613.55 384.622 1613.55C352.545 1453.33 428.903 1397.26 533.503 1291.72C509.445 1308.44 482.597 1321.67 457.493 1336.3C371.721 1384.37 320.467 1467.26 333.019 1567.58C333.368 1571.41 327.789 1571.41 327.441 1567.58C317.329 1496.87 341.736 1425.47 392.99 1375.31ZM1133.91 555.06C1118.57 459.625 1204.34 368.021 1204.34 368.021C1193.18 389.616 1203.99 479.478 1230.84 552.273C1243.74 585.71 1283.14 601.384 1300.57 631.338C1313.12 653.629 1316.61 680.1 1310.68 704.83C1309.63 708.661 1304.75 706.571 1305.1 703.437C1313.82 662.685 1298.13 630.293 1268.14 603.474C1257.33 594.766 1248.27 585.014 1239.55 574.216C1245.13 586.407 1251.06 598.249 1258.38 609.395C1305.45 680.797 1285.58 719.11 1285.58 719.11C1233.28 748.368 1110.55 722.245 1110.55 722.245C1134.95 669.999 1143.32 611.485 1133.91 555.06Z"
              fill="#3E8AF8"/>
        <path d="M621.367 1118.27C624.505 1061.84 649.609 1008.55 690.751 970.237C819.061 850.072 1025.82 727.818 1033.84 585.014C1041.86 442.558 1027.91 406.334 1089.97 362.448C1152.04 318.562 1190.39 356.527 1256.64 346.078C1286.62 341.898 1315.91 333.887 1343.8 322.045C1351.13 318.91 1359.49 322.045 1362.63 329.359C1362.63 329.708 1362.98 330.404 1362.98 330.752C1373.09 362.1 1386.69 432.457 1311.03 466.591C1200.85 517.095 1209.92 624.023 1233.97 711.448C1264.31 822.556 1293.6 983.472 1119.61 1062.89C1103.92 1108.86 1091.02 1155.88 1081.26 1203.6C1067.31 1283.36 1055.81 1355.81 1092.07 1362.43C1126.93 1369.04 1137.39 1383.67 1138.79 1404.22H1027.56C1012.22 1394.82 998.973 1358.94 999.321 1297.64C999.67 1258.63 998.973 1180.61 997.927 1117.57C979.447 1125.93 961.317 1134.29 943.883 1141.95C942.837 1188.62 932.726 1240.87 896.116 1265.95C822.199 1316.45 791.865 1295.55 778.964 1319.24C765.366 1342.92 789.075 1354.76 826.731 1348.84C863.69 1342.92 920.174 1342.92 927.496 1403.87H747.933C727.013 1403.87 679.594 1348.49 648.911 1276.74C634.965 1244 626.248 1209.52 622.413 1174.34C622.064 1153.44 621.018 1136.03 621.367 1118.27Z"
              fill="#A1C3FC"/>
        <path d="M948.765 951.777C949.811 952.821 949.811 954.563 948.765 955.608C947.719 956.653 946.324 957.001 945.627 955.956H945.278C944.232 954.911 944.232 953.17 945.278 952.125C946.324 951.08 947.719 950.732 948.765 951.777ZM903.438 908.587C904.484 909.632 904.484 911.373 903.438 912.418C902.392 913.463 900.997 913.811 899.603 912.767C898.557 911.722 898.557 909.98 899.254 908.935C900.649 908.239 902.043 907.89 903.438 908.587ZM857.414 865.746C858.46 866.791 858.46 868.532 857.414 869.577C856.368 870.622 854.973 870.97 854.276 869.925H853.927C852.881 868.88 852.881 867.139 853.927 866.094C854.625 865.049 856.019 864.701 857.414 865.746ZM990.953 821.163C990.605 822.556 989.21 823.601 987.815 822.904C986.421 822.556 986.072 821.163 986.421 819.77C986.769 818.377 988.164 817.332 989.559 818.028C990.256 818.028 991.302 819.77 990.953 821.163ZM933.075 799.916C932.726 801.31 931.331 802.355 929.937 801.658C928.542 801.31 928.193 799.916 928.542 798.523C928.891 797.13 930.285 796.085 931.68 796.782C932.377 796.782 933.423 798.523 933.075 799.916ZM835.797 1005.07C836.145 1006.46 835.797 1007.85 834.402 1008.9C833.007 1009.25 831.613 1008.9 831.264 1007.85C830.218 1006.46 830.915 1005.07 832.31 1004.02C833.356 1002.98 834.751 1002.98 835.797 1005.07C835.797 1004.37 835.797 1004.37 835.797 1005.07ZM808.949 946.552C809.298 947.945 808.949 949.338 807.555 950.383C806.16 950.732 804.765 950.383 804.417 948.99C804.068 947.597 804.417 946.204 805.811 945.159C807.206 944.81 808.601 945.159 808.949 946.552ZM872.407 954.563C872.755 955.956 872.755 957.349 871.361 957.698C870.315 958.046 868.92 958.046 868.571 957.349C868.223 956.304 868.223 954.563 869.617 954.215C869.966 953.17 871.361 953.518 872.407 954.563ZM844.165 905.452C844.513 906.497 844.513 907.89 843.119 908.587C842.073 908.935 840.678 908.935 840.329 908.239C839.981 907.194 839.981 905.452 841.375 905.104C841.724 903.711 843.119 904.059 844.165 905.452ZM939.002 849.375C940.048 850.42 940.397 851.814 939.351 852.51C939.002 853.555 937.607 853.903 936.561 852.858C935.515 851.814 935.167 850.42 936.213 849.724C936.561 849.027 937.956 848.331 939.002 849.375ZM895.07 815.242C896.116 816.287 896.465 817.68 895.419 818.377C895.07 819.421 893.675 819.77 892.629 818.725C891.583 817.68 891.235 816.287 892.281 815.59C892.281 814.545 893.675 814.545 895.07 815.242ZM761.879 967.102C761.879 968.495 761.531 969.54 760.136 969.888C758.741 969.888 757.695 969.54 757.347 968.147C757.347 966.754 757.695 965.709 759.09 965.36C760.485 964.664 761.182 965.709 761.879 967.102ZM1050.58 803.748C1051.62 804.793 1051.97 806.534 1050.92 807.579C1049.88 808.972 1048.48 808.972 1047.09 807.927C1046.04 806.883 1045.69 805.141 1046.74 804.096C1047.44 803.051 1049.18 802.703 1050.58 803.748C1050.23 803.748 1050.23 803.748 1050.58 803.748ZM822.547 948.294C822.547 949.687 821.501 951.08 820.107 951.428C818.712 951.428 817.317 950.383 817.317 948.99C816.969 947.597 817.666 946.204 819.061 945.855C820.455 945.507 821.85 946.552 822.547 948.294ZM813.482 882.116C813.482 883.509 812.436 884.902 811.041 885.251C809.647 885.251 808.252 884.206 808.252 882.813C807.903 881.419 808.601 880.026 809.995 879.678C811.739 880.026 813.133 880.723 813.482 882.116ZM938.653 870.622C939.002 872.015 939.002 873.408 937.607 874.453C936.213 875.498 934.818 874.802 933.772 873.408C932.726 872.015 933.423 870.622 934.818 869.577C936.213 868.88 937.956 869.229 938.653 870.622ZM906.576 813.152C907.622 814.545 906.925 815.938 905.53 816.983C904.135 818.028 902.741 817.332 902.392 815.938C901.346 814.545 902.043 813.152 903.438 812.107C903.787 811.41 905.53 811.759 906.576 813.152ZM980.145 857.735C981.191 859.128 980.493 860.521 979.099 861.566C977.704 862.611 976.309 861.914 975.263 861.218C974.217 859.825 974.915 858.431 975.612 857.386C978.053 856.342 979.447 856.342 980.145 857.735ZM945.975 802.355C947.021 803.748 946.324 805.141 944.929 806.186C943.535 807.231 942.14 806.534 941.094 805.141C940.048 803.748 940.745 802.355 942.14 801.31C943.535 800.961 944.929 800.961 945.975 802.355ZM850.092 877.24C850.441 878.633 849.743 880.026 847.651 880.374C846.257 880.374 844.862 879.329 844.862 877.936C844.513 876.543 845.211 875.15 846.605 874.802C848.349 874.453 849.743 875.498 850.092 877.24C849.743 876.891 850.092 876.891 850.092 877.24Z"
              fill="white"
              opacity="0.86"/>
        <path d="M938.653 572.126C1002.11 536.948 1009.08 486.444 1026.17 445.344C1039.07 414.345 1059.64 387.178 1085.44 365.234C1078.12 373.942 1064.17 402.851 1073.24 491.668V494.107C1095.9 588.497 1108.11 690.898 1039.07 768.918C1036.63 771.704 1032.44 767.524 1034.89 764.738C1092.76 698.909 1091.72 615.316 1076.38 534.858C1081.61 627.507 1066.96 690.898 1006.64 764.738C1006.64 764.738 930.285 767.873 841.724 684.28C842.421 684.628 875.196 607.305 938.653 572.126Z"
              fill="#3E8AF8"/>
        <path d="M1197.02 329.708C1208.17 351.302 1190.04 374.639 1164.94 371.504C1161.8 371.156 1162.5 366.976 1165.98 367.324C1179.23 370.111 1192.48 361.403 1195.27 347.819C1196.32 342.246 1195.62 336.325 1192.83 331.449C1191.44 328.663 1195.62 327.269 1197.02 329.708Z"
              fill="#378AF5"/>
    </g>
    <g clip-path="url(#clip1_3_2)">
        <path d="M1061.5 1483C1142.41 1483 1208 1417.41 1208 1336.5C1208 1255.59 1142.41 1190 1061.5 1190C980.59 1190 915 1255.59 915 1336.5C915 1417.41 980.59 1483 1061.5 1483Z"
              fill="#23286B"/>
    </g>
    <g clip-path="url(#clip2_3_2)">
        <path d="M833.414 1428.14C922.008 1428.14 993.828 1372.37 993.828 1303.57C993.828 1234.77 922.008 1178.99 833.414 1178.99C744.82 1178.99 673 1234.77 673 1303.57C673 1372.37 744.82 1428.14 833.414 1428.14Z"
              fill="white"/>
        <path d="M768.923 1138.54C782.225 1119.94 797.541 1102.95 815.676 1089.2C839.459 1071 866.868 1059.27 894.27 1047.54C922.888 1035.41 952.31 1022.87 982.944 1018.01C1003.5 1014.78 1024.86 1014.78 1045.82 1015.18C1090.96 1016.4 1131.67 1018.42 1175.19 1030.96C1218.72 1043.49 1260.24 1081.52 1285.63 1119.13C1350.52 1215.39 1344.88 1276.47 1344.88 1297.9C1345.69 1460.5 1029.29 1614.2 906.363 1503.37C897.902 1495.69 888.628 1487.6 887.822 1476.28C886.612 1455.24 910.795 1442.3 931.756 1438.26C970.851 1430.57 1011.16 1422.08 1050.66 1417.22C1173.18 1401.85 1191.72 1386.08 1258.63 1355.34C1271.12 1349.68 1281.6 1339.16 1289.26 1327.84C1296.92 1316.11 1299.74 1300.74 1293.69 1288.6C1284.42 1270.4 1260.64 1265.95 1240.49 1268.38C1188.9 1274.04 1144.16 1306 1099.02 1331.48C1014.38 1378.8 916.44 1406.71 820.108 1395.79C783.029 1391.74 742.724 1378.8 724.183 1346.44C705.641 1313.68 715.315 1272.43 725.795 1236.02C730.634 1219.84 735.066 1203.26 741.917 1187.49C748.369 1170.09 758.042 1153.91 768.923 1138.54Z"
              fill="white"/>
        <path d="M893.067 1346.44C886.215 1346.44 879.764 1345.23 873.319 1342.8C872.109 1342.4 871.706 1341.18 872.109 1340.37C872.512 1339.56 873.722 1338.75 874.528 1339.16C891.86 1346.03 913.221 1342.39 926.923 1329.86C927.105 1329.66 927.323 1329.51 927.566 1329.41C927.808 1329.3 928.069 1329.25 928.333 1329.25C928.597 1329.25 928.858 1329.3 929.1 1329.41C929.343 1329.51 929.561 1329.66 929.743 1329.86C930.549 1330.67 930.549 1331.88 929.743 1332.69C920.069 1341.59 906.766 1346.44 893.067 1346.44Z"
              fill="#23286B"/>
        <path d="M731.84 1337.54C739.501 1342.8 747.962 1348.06 757.23 1349.27C768.11 1350.49 779.4 1348.46 789.474 1344.02"
              fill="white"/>
        <path d="M764.084 1351.7C761.665 1351.7 759.246 1351.7 757.233 1351.3C747.562 1350.08 739.095 1344.82 731.034 1339.16C730.228 1338.35 729.824 1337.14 730.631 1336.33C731.437 1335.52 732.65 1335.12 733.45 1335.93C741.511 1341.18 749.169 1346.04 758.033 1347.25C768.11 1348.46 778.991 1346.85 789.471 1342.4C790.681 1341.99 791.49 1342.4 792.293 1343.61C792.697 1344.82 792.293 1345.64 791.084 1346.44C781.822 1349.67 772.552 1351.7 764.084 1351.7Z"
              fill="#23286B"/>
        <path d="M712.092 1161.2C727.005 1181.82 740.305 1203.66 751.188 1226.31C724.989 1235.21 702.419 1254.22 688.716 1278.89C684.687 1238.45 692.748 1196.79 712.092 1161.2ZM922.888 1239.26C936.191 1215.39 950.7 1191.94 966.419 1169.69C980.525 1208.92 989.799 1250.99 983.348 1291.84C974.886 1273.64 961.584 1257.46 945.058 1245.73C938.607 1240.88 931.356 1236.83 923.295 1236.02C927.321 1234.81 918.456 1240.07 922.888 1239.26Z"
              fill="#EEEEEE"/>
        <path d="M824.543 1377.18H843.085V1395.79H824.543V1377.18Z" fill="#C8DCFD"/>
    </g>
    <g clip-path="url(#clip3_3_2)">
        <path d="M461.076 970C446.662 970 434.977 958.315 434.977 943.901C434.977 929.488 446.662 917.803 461.076 917.803C475.49 917.803 487.174 929.488 487.174 943.901C487.174 958.315 475.49 970 461.076 970Z"
              fill="#D9E021"/>
        <path d="M817 422.014L809.049 396.419L783.465 404.368L791.416 429.963L817 422.014Z" fill="#A1C3FC"/>
        <path d="M673.397 502.464L651.749 432.777L582.09 454.421L603.738 524.109L673.397 502.464Z" fill="#E94A47"/>
        <path d="M776.31 767.79L754.662 698.102L684.998 719.746L706.646 789.434L776.31 767.79Z" fill="#1D72D8"/>
        <path d="M712.969 570.081C713.523 570.081 714.066 569.923 714.534 569.625C715.001 569.327 715.373 568.901 715.605 568.399C749.748 494.802 728.694 399.913 666.621 347.685C666.025 347.261 665.29 347.076 664.564 347.169C663.837 347.261 663.172 347.623 662.701 348.183C662.23 348.743 661.987 349.46 662.022 350.19C662.057 350.92 662.366 351.611 662.888 352.124C723.031 402.722 743.43 494.656 710.343 565.964C710.021 566.662 709.989 567.459 710.253 568.182C710.517 568.904 711.055 569.493 711.752 569.821C712.135 569.991 712.55 570.08 712.969 570.081ZM457.056 854.517C457.635 854.516 458.201 854.343 458.68 854.02C459.16 853.696 459.532 853.237 459.749 852.701C459.966 852.165 460.017 851.576 459.897 851.011C459.777 850.446 459.49 849.929 459.074 849.527C417.047 808.986 343.327 805.923 298.071 842.809C297.77 843.048 297.52 843.344 297.334 843.679C297.149 844.015 297.032 844.385 296.991 844.766C296.949 845.147 296.984 845.533 297.093 845.901C297.202 846.269 297.383 846.611 297.626 846.908C297.869 847.206 298.168 847.452 298.507 847.633C298.846 847.814 299.217 847.926 299.6 847.962C299.982 847.999 300.368 847.959 300.735 847.845C301.102 847.732 301.443 847.546 301.737 847.3C344.819 812.173 415.03 815.107 455.044 853.701C455.583 854.223 456.305 854.516 457.056 854.517Z"
              fill="#23286B"/>
    </g>
    <g clip-path="url(#clip4_3_2)">
        <path d="M1442.68 1148.78C1448.77 1151.39 1455.82 1148.55 1458.43 1142.44C1461.04 1136.33 1458.22 1129.27 1452.12 1126.67C1446.03 1124.07 1438.98 1126.91 1436.37 1133.02C1433.76 1139.12 1436.59 1146.18 1442.68 1148.78Z"
              fill="#D9E021"/>
        <path d="M1391.4 852.374L1399.39 842.966L1408.77 850.952L1400.77 860.36L1391.4 852.374Z" fill="#A1C3FC"/>
        <path d="M1437.54 912.382L1459.3 886.767L1484.82 908.513L1463.06 934.128L1437.54 912.382Z" fill="#E94A47"/>
        <path d="M1346.03 1006.21L1367.79 980.592L1393.32 1002.34L1371.56 1027.95L1346.03 1006.21Z" fill="#1D72D8"/>
        <path d="M1408.58 933.883C1408.34 933.783 1408.14 933.618 1408 933.408C1407.85 933.197 1407.77 932.95 1407.77 932.695C1406.65 895.351 1432.72 858.954 1468.41 848.034C1468.74 847.961 1469.08 848.016 1469.37 848.186C1469.66 848.356 1469.88 848.63 1469.98 848.952C1470.07 849.275 1470.05 849.622 1469.9 849.925C1469.75 850.228 1469.5 850.465 1469.18 850.588C1434.61 861.166 1409.35 896.43 1410.43 932.613C1410.44 932.967 1410.31 933.311 1410.07 933.569C1409.83 933.828 1409.49 933.98 1409.14 933.993C1408.94 933.996 1408.75 933.959 1408.58 933.883ZM1465.27 1100.59C1465.03 1100.48 1464.82 1100.31 1464.68 1100.08C1464.53 1099.86 1464.46 1099.6 1464.46 1099.33C1464.47 1099.06 1464.55 1098.81 1464.71 1098.59C1464.86 1098.37 1465.08 1098.2 1465.32 1098.11C1490.42 1088.52 1522.14 1100.53 1534.59 1124.33C1534.67 1124.48 1534.73 1124.65 1534.74 1124.83C1534.76 1125.01 1534.75 1125.18 1534.69 1125.35C1534.64 1125.52 1534.56 1125.68 1534.44 1125.81C1534.33 1125.95 1534.19 1126.06 1534.04 1126.15C1533.88 1126.23 1533.71 1126.28 1533.53 1126.29C1533.36 1126.31 1533.18 1126.29 1533.01 1126.24C1532.84 1126.18 1532.69 1126.1 1532.55 1125.98C1532.42 1125.87 1532.31 1125.73 1532.23 1125.57C1520.38 1102.91 1490.17 1091.48 1466.27 1100.6C1465.95 1100.73 1465.59 1100.72 1465.27 1100.59Z"
              fill="#23286B"/>
    </g>
    <defs>
        <linearGradient gradientUnits="userSpaceOnUse" id="paint0_linear_3_2" x1="1383.45" x2="768.849" y1="1087.2"
                        y2="1407.87">
            <stop stop-color="#A1C3FC"/>
            <stop offset="0.696" stop-color="#81AEF2"/>
            <stop offset="1" stop-color="#78A9EF"/>
        </linearGradient>
        <linearGradient gradientUnits="userSpaceOnUse" id="paint1_linear_3_2" x1="1201.43" x2="797.881" y1="1165.2"
                        y2="1276.39">
            <stop stop-color="#A1C3FC"/>
            <stop offset="0.696" stop-color="#81AEF2"/>
            <stop offset="1" stop-color="#78A9EF"/>
        </linearGradient>
        <clipPath id="clip0_3_2">
            <rect fill="white" height="1334" transform="matrix(-1 0 0 1 1371 321)" width="1046"/>
        </clipPath>
        <clipPath id="clip1_3_2">
            <rect fill="white" height="293" transform="translate(915 1190)" width="293"/>
        </clipPath>
        <clipPath id="clip2_3_2">
            <rect fill="white" height="526" transform="translate(673 1015)" width="672"/>
        </clipPath>
        <clipPath id="clip3_3_2">
            <rect fill="white" height="623" transform="matrix(-1 0 0 1 817 347)" width="520"/>
        </clipPath>
        <clipPath id="clip4_3_2">
            <rect fill="white" height="287" transform="translate(1404.97 820.594) rotate(23.1289)" width="239"/>
        </clipPath>
    </defs>
</svg>
