<svg width="500" height="500" viewBox="0 0 500 500" fill="none" xmlns="http://www.w3.org/2000/svg">
    <path d="M164.024 225.999C159.677 224.85 155.704 228.823 156.852 233.171C167.888 274.746 165.918 261.686 176.723 302.376L224.349 241.716C194.037 233.676 205.143 236.914 164.024 225.999Z"
          fill="#FFCFCF"/>
    <path d="M344.635 225.999C303.516 236.914 314.562 233.648 284.25 241.688L331.927 302.282C342.733 261.592 340.77 274.746 351.806 233.171C352.955 228.823 348.983 224.85 344.635 225.999Z"
          fill="#FFCFCF"/>
    <path d="M332.846 314.3C332.846 319.268 332.389 324.132 331.498 328.843C328.814 343.186 322.229 356.147 312.9 366.6C311.318 368.358 309.678 370.046 307.955 371.651C293.916 384.776 275.061 392.815 254.33 392.815C233.6 392.815 214.744 384.776 200.705 371.651C198.982 370.046 197.342 368.358 195.76 366.6C183.361 352.714 175.814 334.386 175.814 314.3C175.814 270.94 210.971 235.784 254.33 235.784H254.869C255.666 235.796 256.451 235.819 257.236 235.843C298.697 237.343 331.967 271.011 332.822 312.636C332.846 313.186 332.846 313.749 332.846 314.3Z"
          fill="#FFE2E2"/>
    <path d="M258.902 333.204C256.556 336.13 252.102 336.13 249.758 333.204L244.468 326.604L242.239 323.823C239.165 319.988 241.895 314.3 246.811 314.3H254.33H261.849C266.765 314.3 269.495 319.988 266.422 323.823L264.193 326.604L258.902 333.204Z"
          fill="#C98585"/>
    <path d="M332.846 314.3C332.846 319.268 332.389 324.132 331.498 328.843C330.326 328.913 329.143 328.936 327.959 328.936C286.416 328.936 252.725 295.257 252.725 253.69C252.725 247.526 253.463 241.526 254.869 235.784C255.666 235.796 256.451 235.819 257.236 235.843C298.697 237.343 331.967 271.011 332.822 312.636C332.846 313.186 332.846 313.749 332.846 314.3Z"
          fill="#C98585"/>
    <path d="M332.846 314.3C332.846 334.386 325.299 352.714 312.9 366.6C311.318 368.358 309.678 370.046 307.955 371.651C293.916 384.776 275.061 392.815 254.33 392.815C251.354 392.815 248.424 392.651 245.541 392.323C262.791 390.401 278.354 382.889 290.377 371.651C292.1 370.046 293.74 368.358 295.322 366.6C307.721 352.714 315.268 334.386 315.268 314.3C315.268 273.917 284.764 240.647 245.541 236.276C248.424 235.948 251.354 235.784 254.33 235.784C297.689 235.784 332.846 270.94 332.846 314.3Z"
          fill="#FFCFCF"/>
    <path d="M218.283 371.651C230.307 382.889 245.869 390.401 263.119 392.323C260.236 392.651 257.307 392.815 254.33 392.815C233.6 392.815 214.744 384.776 200.705 371.651C198.982 370.046 197.342 368.358 195.76 366.6C183.361 352.714 175.814 334.386 175.814 314.3C175.814 270.94 210.971 235.784 254.33 235.784C257.307 235.784 260.236 235.948 263.119 236.276C223.896 240.647 193.393 273.917 193.393 314.3C193.393 334.386 200.939 352.714 213.338 366.6C214.92 368.358 216.561 370.046 218.283 371.651Z"
          fill="#FFEFEE"/>
    <path d="M331.498 328.843C326.697 329.131 320.334 328.824 314.131 327.671C321.316 286.021 294.352 246.974 254.412 237.788C254.629 236.761 254.869 235.784 254.869 235.784C293.59 235.784 326.685 265.777 331.744 301.198C332.863 307.021 333.569 317.888 331.498 328.843Z"
          fill="#B76C6C"/>
    <path d="M290.588 334.388C287.999 334.388 285.9 336.487 285.9 339.075C285.9 346.429 279.918 352.413 272.563 352.413C265.209 352.413 259.226 346.43 259.226 339.075C259.226 339.009 259.21 338.948 259.206 338.882C260.481 338.215 261.628 337.296 262.558 336.136L270.077 326.754C275.602 319.86 270.707 309.612 261.848 309.612H246.81C237.975 309.612 233.041 319.841 238.581 326.755L246.1 336.136C247.03 337.296 248.177 338.215 249.452 338.882C249.109 347.575 242.646 352.413 236.096 352.413C228.742 352.413 222.759 346.43 222.759 339.075C222.759 336.487 220.66 334.388 218.071 334.388C215.482 334.388 213.384 336.487 213.384 339.075C213.384 351.599 223.572 361.788 236.096 361.788C243.568 361.788 250.187 358.144 254.33 352.559C258.471 358.144 265.093 361.788 272.564 361.788C293.752 361.788 301.161 334.388 290.588 334.388ZM255.244 330.273C254.769 330.864 253.885 330.859 253.415 330.273L245.896 320.894C245.277 320.121 245.818 318.988 246.81 318.988H261.848C262.839 318.988 263.383 320.12 262.761 320.894L255.244 330.273Z"
          fill="#5F266D"/>
    <path d="M227.27 293.896C228.125 294.557 229.136 294.878 230.138 294.878C231.537 294.878 232.923 294.254 233.847 293.062C235.432 291.014 235.059 288.071 233.012 286.485C218.43 275.187 204.716 281.768 199.503 286.826C197.656 288.618 197.612 291.551 199.389 293.413C201.168 295.275 204.128 295.342 206.004 293.581C206.969 292.675 215.764 284.979 227.27 293.896Z"
          fill="#5F266D"/>
    <path d="M281.755 293.58C282.719 292.675 291.515 284.979 303.02 293.896C303.875 294.557 304.886 294.878 305.888 294.878C307.287 294.878 308.673 294.254 309.597 293.062C311.182 291.014 310.809 288.071 308.762 286.485C294.178 275.187 280.466 281.768 275.253 286.826C273.406 288.618 273.362 291.551 275.139 293.413C276.919 295.274 279.879 295.342 281.755 293.58Z"
          fill="#5F266D"/>
    <path d="M361.028 303.46C360.477 300.93 357.973 299.327 355.451 299.876L336.882 303.918C336.826 303.471 336.763 303.026 336.7 302.58C347.024 263.789 345.463 275.324 356.337 234.368C358.403 226.547 351.266 219.4 343.431 221.468C304.176 231.883 312.146 229.455 284.522 236.771C265.108 229.206 243.428 229.216 224.069 236.792C195.776 229.296 203.877 231.726 165.219 221.466C157.409 219.398 150.249 226.531 152.319 234.373C163.232 275.481 161.517 263.473 171.942 302.645C171.883 303.068 171.842 303.496 171.789 303.92L153.207 299.876C150.685 299.327 148.18 300.929 147.63 303.46C147.079 305.989 148.682 308.486 151.213 309.037L171.134 313.373C171.028 320.719 171.967 328.375 173.929 335.748L151.45 339.44C148.895 339.859 147.166 342.271 147.584 344.826C148.002 347.366 150.402 349.114 152.97 348.692L176.917 344.759C204.536 414.641 304.193 414.994 331.753 344.761L355.687 348.692C361.864 349.708 363.278 340.438 357.207 339.44L334.724 335.747C336.58 328.772 337.531 321.577 337.531 314.301C337.531 314.025 337.53 313.772 337.518 313.503C337.518 313.459 337.516 313.417 337.514 313.374L357.442 309.037C359.976 308.486 361.579 305.989 361.028 303.46ZM176.666 284.346C170.608 262.894 170.515 266.371 161.383 231.973C161.151 231.094 161.946 230.302 162.821 230.529C197.357 239.696 194.939 238.853 211.214 243.102C195.36 252.66 183.255 267.134 176.666 284.346ZM325.431 334.221L304.445 330.775C301.891 330.359 299.48 332.086 299.059 334.641C298.641 337.196 300.371 339.606 302.925 340.027L322.272 343.204C296.996 402.755 212.014 403.159 186.396 343.203L205.732 340.027C208.287 339.607 210.017 337.196 209.598 334.641C209.179 332.086 206.769 330.36 204.212 330.775L183.226 334.221C181.523 328.12 180.614 321.804 180.519 315.415L203.976 320.52C206.503 321.072 209.002 319.466 209.553 316.936C210.103 314.407 208.5 311.91 205.969 311.359L180.989 305.922C181.185 304.192 181.428 302.473 181.744 300.78C181.753 300.734 181.762 300.688 181.769 300.641C186.12 277.325 201.951 257.166 223.47 247.224V264.038C223.47 266.627 225.569 268.725 228.157 268.725C230.746 268.725 232.845 266.627 232.845 264.038V243.652C238.355 241.975 244.043 240.963 249.851 240.618V276.798C249.851 279.387 251.95 281.486 254.539 281.486C257.127 281.486 259.226 279.387 259.226 276.798V240.64C264.883 241.009 270.44 242.018 275.814 243.657V264.039C275.814 266.628 277.913 268.727 280.501 268.727C283.09 268.727 285.189 266.628 285.189 264.039V247.234C305.151 256.446 320.283 274.459 325.796 295.705C325.807 295.758 325.82 295.81 325.832 295.863C326.683 299.165 327.293 302.53 327.675 305.921L302.687 311.359C300.157 311.91 298.554 314.407 299.104 316.936C299.653 319.465 302.152 321.072 304.681 320.52L328.135 315.415C328.041 321.803 327.139 328.113 325.431 334.221ZM331.96 284.354C325.32 267.25 313.025 252.637 297.325 243.099C314.254 238.688 310.635 239.873 345.831 230.533C346.711 230.297 347.505 231.104 347.275 231.971C338.151 266.337 337.995 262.995 331.96 284.354Z"
          fill="#5F266D"/>
    <path d="M384.591 113.489C382.002 113.489 379.904 115.588 379.904 118.177V120.933C379.904 127.332 374.698 132.537 368.3 132.537C357.688 132.537 347.321 140.509 347.321 154.977C347.321 157.566 349.42 159.665 352.008 159.665C354.597 159.665 356.696 157.566 356.696 154.977V153.516C356.696 147.118 361.901 141.912 368.3 141.912C379.867 141.912 389.279 132.501 389.279 120.933V118.177C389.279 115.588 387.18 113.489 384.591 113.489Z"
          fill="#5F266D"/>
    <path d="M152.212 202.911C154.8 202.911 156.899 200.812 156.899 198.223C156.899 195.634 154.8 193.536 152.212 193.536H150.749C144.351 193.536 139.145 188.33 139.145 181.932C139.145 170.364 129.734 160.954 118.166 160.954H115.41C112.821 160.954 110.723 163.053 110.723 165.641C110.723 168.23 112.821 170.329 115.41 170.329H118.166C124.565 170.329 129.77 175.534 129.77 181.933C129.77 193.5 139.182 202.911 150.749 202.911H152.212Z"
          fill="#5F266D"/>
    <path d="M156.285 146.174C158.833 146.384 161.12 144.47 161.324 141.868L161.54 139.121C162.041 132.725 167.618 127.96 174.016 128.457C184.588 129.31 195.551 122.153 196.683 107.723C197.167 101.555 187.823 100.777 187.338 106.99L187.223 108.45C186.722 114.829 181.138 119.617 174.747 119.113C163.314 118.198 153.106 126.729 152.194 138.389L151.979 141.136C151.777 143.716 153.705 145.973 156.285 146.174Z"
          fill="#5F266D"/>
    <path d="M219.878 186.619H298.17C300.759 186.619 302.858 184.52 302.858 181.932C302.858 179.343 300.759 177.244 298.17 177.244H219.878C214.51 177.244 210.141 172.875 210.141 167.507V155.927C210.141 150.557 214.51 146.188 219.878 146.188C225.247 146.188 229.615 150.557 229.615 155.927V161.716C229.615 164.304 231.714 166.403 234.303 166.403C236.892 166.403 238.99 164.304 238.99 161.716V155.927C238.99 145.388 230.417 136.813 219.878 136.813C209.34 136.813 200.766 145.387 200.766 155.927V167.507C200.766 178.045 209.341 186.619 219.878 186.619Z"
          fill="#5F266D"/>
    <path d="M354.639 202.034C354.655 199.445 352.57 197.323 349.981 197.317C266.444 197.117 255.561 196.591 253.18 197.881C248.508 200.407 251.024 207.564 256.251 206.617C262.611 206.164 348.671 206.675 349.955 206.691C352.53 206.689 354.623 204.611 354.639 202.034Z"
          fill="#5F266D"/>
    <path d="M349.956 206.691H349.953C349.978 206.691 349.977 206.691 349.956 206.691Z" fill="#5F266D"/>
</svg>
