<svg fill="none" height="1500" viewBox="0 0 1500 1500" width="1500" xmlns="http://www.w3.org/2000/svg">
    <g clip-path="url(#clip0_4_3)">
        <path d="M963.892 1163.47C998.061 1170.09 1008.87 1184.37 1010.61 1204.22H897.994C883.35 1193.42 863.476 1159.64 863.825 1100.43C864.871 1028.68 868.357 823.527 868.357 823.527L1017.94 785.562C1017.94 785.562 966.681 924.535 953.083 1003.95C939.485 1084.06 927.979 1156.5 963.892 1163.47Z"
              fill="url(#paint0_linear_4_3)"/>
        <path d="M813.965 853.829C813.965 853.829 848.135 1015.79 773.52 1066.29C699.603 1116.8 669.269 1095.9 656.368 1119.58C642.77 1143.27 666.479 1155.11 704.135 1149.19C741.094 1143.27 797.578 1143.27 804.9 1204.22H625.337C589.773 1204.22 491.449 1034.95 494.935 918.962L813.965 853.829Z"
              fill="url(#paint1_linear_4_3)"/>
        <path d="M192.99 1175.31C238.317 1131.43 307.004 1111.57 353.725 1069.78C370.461 1049.92 385.105 1027.98 397.309 1005.34C397.657 1004.3 397.657 1003.95 398.355 1002.9C398.355 1002.55 398.703 1001.86 399.401 1001.51C419.275 961.803 424.505 930.804 422.064 925.231C515.507 1109.48 391.381 1179.84 366.975 1302.44C342.568 1425.05 380.921 1449.78 380.921 1449.78C245.639 1472.76 184.622 1413.55 184.622 1413.55C152.545 1253.33 228.903 1197.26 333.503 1091.72C309.445 1108.44 282.597 1121.67 257.493 1136.3C171.721 1184.37 120.467 1267.26 133.019 1367.58C133.368 1371.41 127.789 1371.41 127.441 1367.58C117.329 1296.87 141.736 1225.47 192.99 1175.31ZM933.907 355.06C918.565 259.625 1004.34 168.021 1004.34 168.021C993.18 189.616 1003.99 279.478 1030.84 352.273C1043.74 385.71 1083.14 401.384 1100.57 431.338C1113.12 453.629 1116.61 480.1 1110.68 504.83C1109.63 508.661 1104.75 506.571 1105.1 503.437C1113.82 462.685 1098.13 430.293 1068.14 403.474C1057.33 394.766 1048.27 385.014 1039.55 374.216C1045.13 386.407 1051.06 398.249 1058.38 409.395C1105.45 480.797 1085.58 519.11 1085.58 519.11C1033.28 548.368 910.546 522.245 910.546 522.245C934.953 469.999 943.321 411.485 933.907 355.06Z"
              fill="#3E8AF8"/>
        <path d="M421.367 918.265C424.505 861.84 449.609 808.55 490.751 770.237C619.061 650.072 825.82 527.818 833.839 385.014C841.859 242.558 827.912 206.334 889.975 162.448C952.037 118.562 990.391 156.527 1056.64 146.078C1086.62 141.898 1115.91 133.887 1143.8 122.045C1151.13 118.91 1159.49 122.045 1162.63 129.359C1162.63 129.708 1162.98 130.404 1162.98 130.752C1173.09 162.1 1186.69 232.457 1111.03 266.591C1000.85 317.095 1009.92 424.023 1033.97 511.448C1064.31 622.556 1093.6 783.472 919.611 862.885C903.921 908.861 891.021 955.882 881.258 1003.6C867.311 1083.36 855.805 1155.81 892.067 1162.43C926.933 1169.04 937.393 1183.67 938.788 1204.22H827.563C812.222 1194.82 798.973 1158.94 799.321 1097.64C799.67 1058.63 798.973 980.612 797.927 917.569C779.447 925.928 761.317 934.287 743.883 941.95C742.837 988.622 732.726 1040.87 696.116 1065.95C622.199 1116.45 591.865 1095.55 578.964 1119.24C565.366 1142.92 589.075 1154.76 626.731 1148.84C663.69 1142.92 720.174 1142.92 727.496 1203.87H547.933C527.013 1203.87 479.594 1148.49 448.911 1076.74C434.965 1044 426.248 1009.52 422.413 974.342C422.064 953.444 421.018 936.029 421.367 918.265Z"
              fill="#A1C3FC"/>
        <path d="M748.765 751.777C749.811 752.821 749.811 754.563 748.765 755.608C747.719 756.653 746.324 757.001 745.627 755.956H745.278C744.232 754.911 744.232 753.17 745.278 752.125C746.324 751.08 747.719 750.732 748.765 751.777ZM703.438 708.587C704.484 709.632 704.484 711.373 703.438 712.418C702.392 713.463 700.997 713.811 699.603 712.767C698.557 711.722 698.557 709.98 699.254 708.935C700.649 708.239 702.043 707.89 703.438 708.587ZM657.414 665.746C658.46 666.791 658.46 668.532 657.414 669.577C656.368 670.622 654.973 670.97 654.276 669.925H653.927C652.881 668.88 652.881 667.139 653.927 666.094C654.625 665.049 656.019 664.701 657.414 665.746ZM790.953 621.163C790.605 622.556 789.21 623.601 787.815 622.904C786.421 622.556 786.072 621.163 786.421 619.77C786.769 618.377 788.164 617.332 789.559 618.028C790.256 618.028 791.302 619.77 790.953 621.163ZM733.075 599.916C732.726 601.31 731.331 602.355 729.937 601.658C728.542 601.31 728.193 599.916 728.542 598.523C728.891 597.13 730.285 596.085 731.68 596.782C732.377 596.782 733.423 598.523 733.075 599.916ZM635.797 805.067C636.145 806.46 635.797 807.853 634.402 808.898C633.007 809.246 631.613 808.898 631.264 807.853C630.218 806.46 630.915 805.067 632.31 804.022C633.356 802.977 634.751 802.977 635.797 805.067C635.797 804.37 635.797 804.37 635.797 805.067ZM608.949 746.552C609.298 747.945 608.949 749.338 607.555 750.383C606.16 750.732 604.765 750.383 604.417 748.99C604.068 747.597 604.417 746.204 605.811 745.159C607.206 744.81 608.601 745.159 608.949 746.552ZM672.407 754.563C672.755 755.956 672.755 757.349 671.361 757.698C670.315 758.046 668.92 758.046 668.571 757.349C668.223 756.304 668.223 754.563 669.617 754.215C669.966 753.17 671.361 753.518 672.407 754.563ZM644.165 705.452C644.513 706.497 644.513 707.89 643.119 708.587C642.073 708.935 640.678 708.935 640.329 708.239C639.981 707.194 639.981 705.452 641.375 705.104C641.724 703.711 643.119 704.059 644.165 705.452ZM739.002 649.375C740.048 650.42 740.397 651.814 739.351 652.51C739.002 653.555 737.607 653.903 736.561 652.858C735.515 651.814 735.167 650.42 736.213 649.724C736.561 649.027 737.956 648.331 739.002 649.375ZM695.07 615.242C696.116 616.287 696.465 617.68 695.419 618.377C695.07 619.421 693.675 619.77 692.629 618.725C691.583 617.68 691.235 616.287 692.281 615.59C692.281 614.545 693.675 614.545 695.07 615.242ZM561.879 767.102C561.879 768.495 561.531 769.54 560.136 769.888C558.741 769.888 557.695 769.54 557.347 768.147C557.347 766.754 557.695 765.709 559.09 765.36C560.485 764.664 561.182 765.709 561.879 767.102ZM850.575 603.748C851.621 604.793 851.97 606.534 850.924 607.579C849.878 608.972 848.483 608.972 847.089 607.927C846.043 606.883 845.694 605.141 846.74 604.096C847.437 603.051 849.181 602.703 850.575 603.748C850.227 603.748 850.227 603.748 850.575 603.748ZM622.547 748.294C622.547 749.687 621.501 751.08 620.107 751.428C618.712 751.428 617.317 750.383 617.317 748.99C616.969 747.597 617.666 746.204 619.061 745.855C620.455 745.507 621.85 746.552 622.547 748.294ZM613.482 682.116C613.482 683.509 612.436 684.902 611.041 685.251C609.647 685.251 608.252 684.206 608.252 682.813C607.903 681.419 608.601 680.026 609.995 679.678C611.739 680.026 613.133 680.723 613.482 682.116ZM738.653 670.622C739.002 672.015 739.002 673.408 737.607 674.453C736.213 675.498 734.818 674.802 733.772 673.408C732.726 672.015 733.423 670.622 734.818 669.577C736.213 668.88 737.956 669.229 738.653 670.622ZM706.576 613.152C707.622 614.545 706.925 615.938 705.53 616.983C704.135 618.028 702.741 617.332 702.392 615.938C701.346 614.545 702.043 613.152 703.438 612.107C703.787 611.41 705.53 611.759 706.576 613.152ZM780.145 657.735C781.191 659.128 780.493 660.521 779.099 661.566C777.704 662.611 776.309 661.914 775.263 661.218C774.217 659.825 774.915 658.431 775.612 657.386C778.053 656.342 779.447 656.342 780.145 657.735ZM745.975 602.355C747.021 603.748 746.324 605.141 744.929 606.186C743.535 607.231 742.14 606.534 741.094 605.141C740.048 603.748 740.745 602.355 742.14 601.31C743.535 600.961 744.929 600.961 745.975 602.355ZM650.092 677.24C650.441 678.633 649.743 680.026 647.651 680.374C646.257 680.374 644.862 679.329 644.862 677.936C644.513 676.543 645.211 675.15 646.605 674.802C648.349 674.453 649.743 675.498 650.092 677.24C649.743 676.891 650.092 676.891 650.092 677.24Z"
              fill="white"
              opacity="0.86"/>
        <path d="M738.653 372.126C802.111 336.948 809.084 286.444 826.169 245.344C839.069 214.345 859.641 187.178 885.442 165.234C878.12 173.942 864.173 202.851 873.239 291.668V294.107C895.902 388.497 908.105 490.898 839.069 568.918C836.629 571.704 832.445 567.524 834.885 564.738C892.764 498.909 891.718 415.316 876.377 334.858C881.607 427.507 866.963 490.898 806.643 564.738C806.643 564.738 730.285 567.873 641.724 484.28C642.421 484.628 675.196 407.305 738.653 372.126Z"
              fill="#3E8AF8"/>
        <path d="M997.015 129.708C1008.17 151.302 990.042 174.639 964.938 171.504C961.8 171.156 962.497 166.976 965.984 167.324C979.233 170.111 992.483 161.403 995.272 147.819C996.318 142.246 995.621 136.325 992.831 131.449C991.437 128.663 995.621 127.269 997.015 129.708Z"
              fill="#378AF5"/>
    </g>
    <g clip-path="url(#clip1_4_3)">
        <path d="M861.5 1283C942.41 1283 1008 1217.41 1008 1136.5C1008 1055.59 942.41 990 861.5 990C780.59 990 715 1055.59 715 1136.5C715 1217.41 780.59 1283 861.5 1283Z"
              fill="#23286B"/>
    </g>
    <g clip-path="url(#clip2_4_3)">
        <path d="M633.414 1228.14C722.008 1228.14 793.828 1172.37 793.828 1103.57C793.828 1034.77 722.008 978.992 633.414 978.992C544.82 978.992 473 1034.77 473 1103.57C473 1172.37 544.82 1228.14 633.414 1228.14Z"
              fill="white"/>
        <path d="M568.923 938.544C582.225 919.937 597.541 902.953 615.676 889.199C639.459 870.995 666.868 859.271 694.27 847.54C722.888 835.406 752.31 822.872 782.944 818.013C803.499 814.779 824.862 814.779 845.817 815.182C890.96 816.396 931.668 818.416 975.193 830.956C1018.72 843.494 1060.24 881.515 1085.63 919.13C1150.52 1015.39 1144.88 1076.47 1144.88 1097.9C1145.69 1260.5 829.294 1414.2 706.363 1303.37C697.902 1295.69 688.628 1287.6 687.822 1276.28C686.612 1255.24 710.795 1242.3 731.756 1238.26C770.851 1230.57 811.156 1222.08 850.655 1217.22C973.18 1201.85 991.721 1186.08 1058.63 1155.34C1071.12 1149.68 1081.6 1139.16 1089.26 1127.84C1096.92 1116.11 1099.74 1100.74 1093.69 1088.6C1084.42 1070.4 1060.64 1065.95 1040.49 1068.38C988.902 1074.04 944.165 1106 899.021 1131.48C814.382 1178.8 716.44 1206.71 620.108 1195.79C583.029 1191.74 542.724 1178.8 524.183 1146.44C505.641 1113.68 515.315 1072.43 525.795 1036.02C530.634 1019.84 535.066 1003.26 541.917 987.486C548.369 970.092 558.042 953.915 568.923 938.544Z"
              fill="white"/>
        <path d="M693.067 1146.44C686.215 1146.44 679.764 1145.23 673.319 1142.8C672.109 1142.4 671.706 1141.18 672.109 1140.37C672.512 1139.56 673.722 1138.75 674.528 1139.16C691.86 1146.03 713.221 1142.39 726.923 1129.86C727.105 1129.66 727.323 1129.51 727.566 1129.41C727.808 1129.3 728.069 1129.25 728.333 1129.25C728.597 1129.25 728.858 1129.3 729.1 1129.41C729.343 1129.51 729.561 1129.66 729.743 1129.86C730.549 1130.67 730.549 1131.88 729.743 1132.69C720.069 1141.59 706.766 1146.44 693.067 1146.44Z"
              fill="#23286B"/>
        <path d="M531.84 1137.54C539.501 1142.8 547.962 1148.06 557.23 1149.27C568.11 1150.49 579.4 1148.46 589.474 1144.02"
              fill="white"/>
        <path d="M564.084 1151.7C561.665 1151.7 559.246 1151.7 557.233 1151.3C547.562 1150.08 539.095 1144.82 531.034 1139.16C530.228 1138.35 529.824 1137.14 530.631 1136.33C531.437 1135.52 532.65 1135.12 533.45 1135.93C541.511 1141.18 549.169 1146.04 558.033 1147.25C568.11 1148.46 578.991 1146.85 589.471 1142.4C590.681 1141.99 591.49 1142.4 592.293 1143.61C592.697 1144.82 592.293 1145.64 591.084 1146.44C581.822 1149.67 572.552 1151.7 564.084 1151.7Z"
              fill="#23286B"/>
        <path d="M512.092 961.195C527.005 981.82 540.305 1003.66 551.188 1026.31C524.989 1035.21 502.419 1054.22 488.716 1078.89C484.687 1038.45 492.748 996.79 512.092 961.195ZM722.888 1039.26C736.191 1015.39 750.7 991.939 766.419 969.692C780.525 1008.92 789.799 1050.99 783.348 1091.84C774.886 1073.64 761.584 1057.46 745.058 1045.73C738.607 1040.88 731.356 1036.83 723.295 1036.02C727.321 1034.81 718.456 1040.07 722.888 1039.26Z"
              fill="#EEEEEE"/>
        <path d="M624.543 1177.18H643.085V1195.79H624.543V1177.18Z" fill="#C8DCFD"/>
    </g>
    <g clip-path="url(#clip3_4_3)">
        <path d="M261.076 770C246.662 770 234.977 758.315 234.977 743.901C234.977 729.488 246.662 717.803 261.076 717.803C275.49 717.803 287.174 729.488 287.174 743.901C287.174 758.315 275.49 770 261.076 770Z"
              fill="#D9E021"/>
        <path d="M617 222.014L609.049 196.419L583.465 204.368L591.416 229.963L617 222.014Z" fill="#A1C3FC"/>
        <path d="M473.397 302.464L451.749 232.777L382.09 254.421L403.738 324.109L473.397 302.464Z" fill="#E94A47"/>
        <path d="M576.31 567.79L554.662 498.102L484.998 519.746L506.646 589.434L576.31 567.79Z" fill="#1D72D8"/>
        <path d="M512.969 370.081C513.523 370.081 514.066 369.923 514.534 369.625C515.001 369.327 515.373 368.901 515.605 368.399C549.748 294.802 528.694 199.913 466.621 147.685C466.025 147.261 465.29 147.076 464.564 147.169C463.837 147.261 463.172 147.623 462.701 148.183C462.23 148.743 461.987 149.46 462.022 150.19C462.057 150.92 462.366 151.611 462.888 152.124C523.031 202.722 543.43 294.656 510.343 365.964C510.021 366.662 509.989 367.459 510.253 368.182C510.517 368.904 511.055 369.493 511.752 369.821C512.135 369.991 512.55 370.08 512.969 370.081ZM257.056 654.517C257.635 654.516 258.201 654.343 258.68 654.02C259.16 653.696 259.532 653.237 259.749 652.701C259.966 652.165 260.017 651.576 259.897 651.011C259.777 650.446 259.49 649.929 259.074 649.527C217.047 608.986 143.327 605.923 98.0713 642.809C97.7704 643.048 97.5199 643.344 97.3344 643.679C97.1489 644.015 97.032 644.385 96.9906 644.766C96.9492 645.147 96.9841 645.533 97.0931 645.901C97.2022 646.269 97.3834 646.611 97.6261 646.908C97.8688 647.206 98.1683 647.452 98.5071 647.633C98.8459 647.814 99.2172 647.926 99.5997 647.962C99.9821 647.999 100.368 647.959 100.735 647.845C101.102 647.732 101.443 647.546 101.737 647.3C144.819 612.173 215.03 615.107 255.044 653.701C255.583 654.223 256.305 654.516 257.056 654.517Z"
              fill="#23286B"/>
    </g>
    <g clip-path="url(#clip4_4_3)">
        <path d="M1242.68 948.784C1248.77 951.386 1255.82 948.546 1258.43 942.439C1261.04 936.333 1258.22 929.273 1252.12 926.671C1246.03 924.069 1238.98 926.909 1236.37 933.016C1233.76 939.122 1236.59 946.182 1242.68 948.784Z"
              fill="#D9E021"/>
        <path d="M1191.4 652.374L1199.39 642.966L1208.77 650.952L1200.77 660.36L1191.4 652.374Z" fill="#A1C3FC"/>
        <path d="M1237.54 712.382L1259.3 686.767L1284.82 708.513L1263.06 734.128L1237.54 712.382Z" fill="#E94A47"/>
        <path d="M1146.03 806.207L1167.79 780.592L1193.32 802.338L1171.56 827.953L1146.03 806.207Z" fill="#1D72D8"/>
        <path d="M1208.58 733.883C1208.34 733.783 1208.14 733.618 1208 733.408C1207.85 733.197 1207.77 732.95 1207.77 732.695C1206.65 695.351 1232.72 658.954 1268.41 648.034C1268.74 647.961 1269.08 648.016 1269.37 648.186C1269.66 648.356 1269.88 648.63 1269.98 648.952C1270.07 649.275 1270.05 649.622 1269.9 649.925C1269.75 650.228 1269.5 650.465 1269.18 650.588C1234.61 661.166 1209.35 696.43 1210.43 732.613C1210.44 732.967 1210.31 733.311 1210.07 733.569C1209.83 733.828 1209.49 733.98 1209.14 733.993C1208.94 733.996 1208.75 733.959 1208.58 733.883ZM1265.27 900.585C1265.03 900.481 1264.82 900.305 1264.68 900.082C1264.53 899.858 1264.46 899.596 1264.46 899.33C1264.47 899.064 1264.55 898.805 1264.71 898.587C1264.86 898.37 1265.08 898.203 1265.32 898.108C1290.42 888.519 1322.14 900.531 1334.59 924.328C1334.68 924.484 1334.73 924.654 1334.74 924.83C1334.76 925.006 1334.75 925.183 1334.69 925.352C1334.64 925.521 1334.56 925.679 1334.44 925.815C1334.33 925.951 1334.19 926.063 1334.04 926.145C1333.88 926.227 1333.71 926.278 1333.53 926.293C1333.36 926.309 1333.18 926.289 1333.01 926.235C1332.84 926.182 1332.69 926.095 1332.55 925.981C1332.42 925.866 1332.31 925.726 1332.23 925.569C1320.38 902.91 1290.17 891.477 1266.27 900.603C1265.95 900.727 1265.59 900.721 1265.27 900.585Z"
              fill="#23286B"/>
    </g>
    <defs>
        <linearGradient gradientUnits="userSpaceOnUse" id="paint0_linear_4_3" x1="1183.45" x2="568.849" y1="887.202"
                        y2="1207.87">
            <stop stop-color="#A1C3FC"/>
            <stop offset="0.696" stop-color="#81AEF2"/>
            <stop offset="1" stop-color="#78A9EF"/>
        </linearGradient>
        <linearGradient gradientUnits="userSpaceOnUse" id="paint1_linear_4_3" x1="1001.43" x2="597.881" y1="965.203"
                        y2="1076.39">
            <stop stop-color="#A1C3FC"/>
            <stop offset="0.696" stop-color="#81AEF2"/>
            <stop offset="1" stop-color="#78A9EF"/>
        </linearGradient>
        <clipPath id="clip0_4_3">
            <rect fill="white" height="1334" transform="matrix(-1 0 0 1 1171 121)" width="1046"/>
        </clipPath>
        <clipPath id="clip1_4_3">
            <rect fill="white" height="293" transform="translate(715 990)" width="293"/>
        </clipPath>
        <clipPath id="clip2_4_3">
            <rect fill="white" height="526" transform="translate(473 815)" width="672"/>
        </clipPath>
        <clipPath id="clip3_4_3">
            <rect fill="white" height="623" transform="matrix(-1 0 0 1 617 147)" width="520"/>
        </clipPath>
        <clipPath id="clip4_4_3">
            <rect fill="white" height="287" transform="translate(1204.97 620.594) rotate(23.1289)" width="239"/>
        </clipPath>
    </defs>
</svg>
