<svg xmlns="http://www.w3.org/2000/svg" xmlns:xlink="http://www.w3.org/1999/xlink" viewBox="0,0,256,256" width="50px" height="50px"><g fill="#ffffff" fill-rule="nonzero" stroke="none" stroke-width="1" stroke-linecap="butt" stroke-linejoin="miter" stroke-miterlimit="10" stroke-dasharray="" stroke-dashoffset="0" font-family="none" font-weight="none" font-size="none" text-anchor="none" style="mix-blend-mode: normal"><g transform="scale(5.12,5.12)"><path d="M31.17773,2c-2.544,0 -5.29655,1.73239 -7.18555,4.52539c-1.292,1.909 -1.99919,4.05406 -1.99219,6.03906c0.007,2.029 0.76105,3.66914 2.12305,4.61914c0.767,0.535 1.70017,0.81641 2.70117,0.81641h0.08008c2.518,-0.039 5.24052,-1.77239 7.10352,-4.52539c1.287,-1.903 1.99419,-4.04248 1.99219,-6.02148c-0.002,-2.038 -0.75605,-3.68372 -2.12305,-4.63672c-0.764,-0.532 -1.6935,-0.81441 -2.6875,-0.81641zM15.33984,5c-2.593,0.005 -5.12172,2.581 -6.01172,6.125c-0.222,0.881 -0.33113,1.77053 -0.32812,2.64453c0.013,3.112 1.43881,5.5047 3.63281,6.0957c0.333,0.09 0.67644,0.13477 1.02344,0.13477h0.01563c2.588,-0.011 5.111,-2.587 6,-6.125c0.219,-0.871 0.32813,-1.74837 0.32813,-2.60937c-0.002,-3.13 -1.42686,-5.53686 -3.63086,-6.13086c-0.332,-0.09 -0.67548,-0.13477 -1.02148,-0.13477zM42.53711,14c-1.977,0 -4.11172,0.70719 -6.01172,1.99219c-2.753,1.863 -4.48639,4.58551 -4.52539,7.10352c-0.016,1.032 0.26741,1.99325 0.81641,2.78125c0.95,1.362 2.59014,2.11605 4.61914,2.12305h0.0293c1.977,0 4.10881,-0.70619 6.00781,-1.99219c2.798,-1.892 4.53234,-4.65027 4.52734,-7.19727c-0.002,-0.994 -0.28441,-1.9235 -0.81641,-2.6875c-0.953,-1.367 -2.59872,-2.12105 -4.63672,-2.12305zM18.5,22c-6.661,0 -11.6333,1.71375 -14.7793,5.09375c-1.114,1.195 -1.7237,2.7612 -1.7207,4.4082c0.003,1.74 0.68025,3.37366 1.90625,4.59766c1.488,1.486 2.79622,1.91306 3.94922,2.28906c0.929,0.303 1.6625,0.54336 2.4375,1.31836c0.775,0.775 1.01536,1.5085 1.31836,2.4375c0.376,1.153 0.80306,2.46122 2.28906,3.94922c1.226,1.227 2.85866,1.90425 4.59766,1.90625h0.00781c1.641,0 3.20067,-0.60698 4.38867,-1.70898c0.523,-0.485 5.10547,-5.01602 5.10547,-14.79102c0,-0.43 -0.02989,-0.86683 -0.08789,-1.29883c-0.552,-4.149 -3.96528,-7.56028 -8.11328,-8.11328c-0.431,-0.058 -0.86783,-0.08789 -1.29883,-0.08789zM38.72852,30c-0.86,0 -1.73647,0.10912 -2.60547,0.32813c-3.538,0.889 -6.114,3.41295 -6.125,6.00195c-0.001,0.352 0.04572,0.70011 0.13672,1.03711c0.591,2.194 2.9837,3.61981 6.0957,3.63281h0.03906c0.862,0 1.73747,-0.11012 2.60547,-0.32812c3.544,-0.89 6.12,-3.41872 6.125,-6.01172c0,-0.349 -0.04477,-0.6943 -0.13477,-1.0293c-0.594,-2.204 -3.00086,-3.62886 -6.13086,-3.63086z"></path></g></g></svg>